# xmcd
#
# Track frame offsets:
#	150
#	28170
#	51890
#	64073
#	86820
#	101425
#	120620
#	145915
#	160643
#	176845
#
# Disc length: 2875 seconds
# Revision: 2
# Processed by: cddbd v1.5.2PL0 Copyright (c) Steve Scherf et al.
# Submitted via: dBpowerAMP V12.0
#
DISCID=860b390a
DTITLE=B.B. King - Live and Well
DYEAR=1969
DGENRE=Blues
TTITLE0=Don't Answer the Door [Live]
TTITLE1=Just a Little Love [Live]
TTITLE2=My Mood [Live]
TTITLE3=Sweet Little Angel [Live]
TTITLE4=Please Accept My Love [Live]
TTITLE5=I Want You So Bad
TTITLE6=Friends
TTITLE7=Get Off My Back Woman
TTITLE8=Let's Get Down to Business
TTITLE9=Why I Sing the Blues
EXTD=
EXTT0=
EXTT1=
EXTT2=
EXTT3=
EXTT4=
EXTT5=
EXTT6=
EXTT7=
EXTT8=
EXTT9=
PLAYORDER=
